<?xml version="1.0" encoding="iso-8859-1"?>
<!-- Generator: Adobe Illustrator 19.0.0, SVG Export Plug-In . SVG Version: 6.00 Build 0)  -->
<svg version="1.1" id="Capa_1" xmlns="http://www.w3.org/2000/svg" xmlns:xlink="http://www.w3.org/1999/xlink" x="0px" y="0px"
	 viewBox="0 0 512 512" style="enable-background:new 0 0 512 512;" xml:space="preserve">
<rect x="167.01" y="462" style="fill:#7D9BFF;" width="178.05" height="40"/>
<rect x="216.04" y="408" style="fill:#EDF2FA;" width="80" height="53.996"/>
<rect x="35.13" y="350.01" style="fill:#7D9BFF;" width="439.87" height="57.99"/>
<rect x="35.13" y="95" style="fill:#72D8FF;" width="439.87" height="255.01"/>
<polygon style="fill:#FFFFFF;" points="84,10 84,350.01 428,350.01 428,90 348,10 "/>
<polygon style="fill:#72D8FF;" points="348,90 428,90 348,10 "/>
<polygon style="fill:#FFC66C;" points="256,76.773 164,129.56 164,236.823 256,289.237 348,236.823 348,129.56 "/>
<polygon style="fill:#FEDA9B;" points="164,236.823 255.905,289.237 255.905,179.859 164,129.612 "/>
<polygon style="fill:#FFEFD5;" points="165.216,129.56 256,182.453 346.784,129.56 256,76.773 "/>
<path d="M475,84.998h-38.364c-0.429-0.741-0.94-1.444-1.564-2.069l-80-80c-1.913-1.912-4.471-2.904-7.073-2.904
	C348,0.016,348,0.009,348,0H84c-5.522,0-10,4.477-10,10v74.998H37c-5.522,0-10,4.477-10,10V408c0,5.522,4.478,10,10,10h168.964
	v33.996H166.94c-5.522,0-10,4.478-10,10V502c0,5.522,4.478,10,10,10h178.049c5.522,0,10-4.478,10-10v-40.004c0-5.522-4.478-10-10-10
	h-39.024V418H475c5.522,0,10-4.478,10-10V94.998C485,89.475,480.523,84.998,475,84.998z M358,34.142L403.858,80H358V34.142z M338,20
	v70c0,5.523,4.478,10,10,10h70v72c0,5.523,4.478,10,10,10s10-4.477,10-10v-67.002h27v235h-27v-88.499c0-5.523-4.478-10-10-10
	s-10,4.477-10,10v88.499H94V318.01h60.387c5.522,0,10-4.478,10-10s-4.478-10-10-10H94V20H338z M74,104.998v235H47v-235L74,104.998
	L74,104.998z M334.988,492H176.939v-20.004h158.049L334.988,492L334.988,492z M285.963,451.996h-60V418h60V451.996z M47,398v-38.002
	h418V398H47z"/>
<path d="M428.005,222.41c2.63,0,5.2-1.07,7.07-2.93c1.86-1.86,2.93-4.44,2.93-7.07s-1.069-5.21-2.93-7.07
	c-1.87-1.86-4.44-2.93-7.07-2.93c-2.64,0-5.22,1.07-7.08,2.93c-1.859,1.86-2.92,4.44-2.92,7.07s1.061,5.21,2.92,7.07
	C422.786,221.34,425.366,222.41,428.005,222.41z"/>
<path d="M255.066,369.01c-2.63,0-5.21,1.06-7.07,2.92c-1.86,1.87-2.93,4.44-2.93,7.08c0,2.63,1.069,5.21,2.93,7.06
	c1.86,1.87,4.44,2.931,7.07,2.931c2.63,0,5.21-1.061,7.069-2.931c1.86-1.85,2.931-4.43,2.931-7.06c0-2.64-1.07-5.21-2.931-7.08
	C260.276,370.069,257.696,369.01,255.066,369.01z"/>
<path d="M159,244.781l92,53.116c1.547,0.894,3.273,1.34,5,1.34c1.727,0,3.453-0.446,5-1.34l92-53.116c3.094-1.786,5-5.087,5-8.66
	V129.889c0-3.573-1.906-6.874-5-8.66l-92-53.116c-3.094-1.786-6.906-1.786-10,0l-92,53.116c-3.094,1.786-5,5.087-5,8.66v106.232
	C154,239.694,155.907,242.995,159,244.781z M256,123.493c5.522,0,10-4.477,10-10v-19.4l62,35.796l-62,35.796v-13.191
	c0-5.523-4.478-10-10-10s-10,4.477-10,10v13.192l-62-35.796l62-35.796v19.4C246,119.016,250.478,123.493,256,123.493z M338,218.801
	l-14.32-8.268c-4.784-2.762-10.899-1.122-13.66,3.66c-2.762,4.783-1.123,10.899,3.66,13.66l14.32,8.268l-62,35.796v-71.591
	l16.148,9.323c1.575,0.909,3.294,1.341,4.99,1.341c3.456,0,6.818-1.793,8.67-5.001c2.762-4.783,1.123-10.899-3.66-13.66L276,183.005
	l62-35.796V218.801z M236,183.005l-11.645,6.723c-4.783,2.761-6.422,8.877-3.66,13.66c1.853,3.208,5.213,5.001,8.67,5.001
	c1.696,0,3.416-0.432,4.99-1.341L246,200.325v71.592l-62-35.796l19.528-11.274c4.783-2.761,6.422-8.877,3.66-13.66
	c-2.761-4.783-8.877-6.422-13.66-3.66L174,218.8v-71.591L236,183.005z"/>
<path d="M188.585,298.01c-2.64,0-5.21,1.07-7.069,2.93c-1.86,1.86-2.931,4.44-2.931,7.07s1.07,5.21,2.931,7.07
	c1.859,1.859,4.43,2.93,7.069,2.93c2.63,0,5.21-1.07,7.07-2.93s2.93-4.44,2.93-7.07s-1.069-5.21-2.93-7.07
	C193.795,299.08,191.215,298.01,188.585,298.01z"/>
<g>
</g>
<g>
</g>
<g>
</g>
<g>
</g>
<g>
</g>
<g>
</g>
<g>
</g>
<g>
</g>
<g>
</g>
<g>
</g>
<g>
</g>
<g>
</g>
<g>
</g>
<g>
</g>
<g>
</g>
</svg>
