<?xml version="1.0" encoding="iso-8859-1"?>
<!-- Generator: Adobe Illustrator 19.0.0, SVG Export Plug-In . SVG Version: 6.00 Build 0)  -->
<svg version="1.1" id="Layer_1" xmlns="http://www.w3.org/2000/svg" xmlns:xlink="http://www.w3.org/1999/xlink" x="0px" y="0px"
	 viewBox="0 0 512 512" style="enable-background:new 0 0 512 512;" xml:space="preserve">
<polygon style="fill:#F7B239;" points="510.114,510.113 474.365,499.118 443.173,512 411.979,499.118 380.787,512 349.594,499.118 
	318.401,512 287.207,499.118 256.018,512 224.826,499.118 193.633,512 162.437,499.118 131.24,512 100.044,499.118 68.846,512 
	37.643,499.118 1.887,510.114 12.882,474.365 0,443.173 12.882,411.979 0,380.787 12.882,349.594 0,318.401 12.882,287.207 
	0,256.018 12.882,224.826 0,193.633 12.882,162.437 0,131.24 12.882,100.044 0,68.846 12.882,37.643 1.886,1.887 37.635,12.882 
	68.827,0 100.021,12.882 131.213,0 162.406,12.882 193.599,0 224.793,12.882 255.982,0 287.174,12.882 318.367,0 349.562,12.882 
	380.76,0 411.956,12.882 443.154,0 474.357,12.882 510.113,1.886 499.118,37.635 512,68.827 499.118,100.021 512,131.213 
	499.118,162.406 512,193.599 499.118,224.793 512,255.982 499.118,287.174 512,318.367 499.118,349.562 512,380.76 499.118,411.956 
	512,443.154 499.133,474.794 "/>
<g>
	<circle style="fill:#B27214;" cx="63.751" cy="63.751" r="12.882"/>
	<circle style="fill:#B27214;" cx="111.813" cy="63.751" r="12.882"/>
	<circle style="fill:#B27214;" cx="159.874" cy="63.751" r="12.882"/>
	<circle style="fill:#B27214;" cx="207.936" cy="63.751" r="12.882"/>
	<circle style="fill:#B27214;" cx="255.997" cy="63.751" r="12.882"/>
	<circle style="fill:#B27214;" cx="304.059" cy="63.751" r="12.882"/>
	<circle style="fill:#B27214;" cx="352.12" cy="63.751" r="12.882"/>
	<circle style="fill:#B27214;" cx="400.182" cy="63.751" r="12.882"/>
	<circle style="fill:#B27214;" cx="448.243" cy="63.751" r="12.882"/>
	<circle style="fill:#B27214;" cx="63.751" cy="111.813" r="12.882"/>
	<circle style="fill:#B27214;" cx="111.813" cy="111.813" r="12.882"/>
	<circle style="fill:#B27214;" cx="159.874" cy="111.813" r="12.882"/>
	<circle style="fill:#B27214;" cx="207.936" cy="111.813" r="12.882"/>
	<circle style="fill:#B27214;" cx="255.997" cy="111.813" r="12.882"/>
	<circle style="fill:#B27214;" cx="304.059" cy="111.813" r="12.882"/>
	<circle style="fill:#B27214;" cx="352.12" cy="111.813" r="12.882"/>
	<circle style="fill:#B27214;" cx="400.182" cy="111.813" r="12.882"/>
	<circle style="fill:#B27214;" cx="448.243" cy="111.813" r="12.882"/>
	<circle style="fill:#B27214;" cx="63.751" cy="159.874" r="12.882"/>
	<circle style="fill:#B27214;" cx="111.813" cy="159.874" r="12.882"/>
	<circle style="fill:#B27214;" cx="159.874" cy="159.874" r="12.882"/>
	<circle style="fill:#B27214;" cx="207.936" cy="159.874" r="12.882"/>
	<circle style="fill:#B27214;" cx="255.997" cy="159.874" r="12.882"/>
	<circle style="fill:#B27214;" cx="304.059" cy="159.874" r="12.882"/>
	<circle style="fill:#B27214;" cx="352.12" cy="159.874" r="12.882"/>
	<circle style="fill:#B27214;" cx="400.182" cy="159.874" r="12.882"/>
	<circle style="fill:#B27214;" cx="448.243" cy="159.874" r="12.882"/>
	<circle style="fill:#B27214;" cx="63.751" cy="207.936" r="12.882"/>
	<circle style="fill:#B27214;" cx="111.813" cy="207.936" r="12.882"/>
	<circle style="fill:#B27214;" cx="159.874" cy="207.936" r="12.882"/>
	<circle style="fill:#B27214;" cx="207.936" cy="207.936" r="12.882"/>
	<circle style="fill:#B27214;" cx="255.997" cy="207.936" r="12.882"/>
	<circle style="fill:#B27214;" cx="304.059" cy="207.936" r="12.882"/>
	<circle style="fill:#B27214;" cx="352.12" cy="207.936" r="12.882"/>
	<circle style="fill:#B27214;" cx="400.182" cy="207.936" r="12.882"/>
	<circle style="fill:#B27214;" cx="448.243" cy="207.936" r="12.882"/>
	<circle style="fill:#B27214;" cx="63.751" cy="255.997" r="12.882"/>
	<circle style="fill:#B27214;" cx="111.813" cy="255.997" r="12.882"/>
	<circle style="fill:#B27214;" cx="159.874" cy="255.997" r="12.882"/>
	<circle style="fill:#B27214;" cx="207.936" cy="255.997" r="12.882"/>
	<circle style="fill:#B27214;" cx="255.997" cy="255.997" r="12.882"/>
	<circle style="fill:#B27214;" cx="304.059" cy="255.997" r="12.882"/>
	<circle style="fill:#B27214;" cx="352.12" cy="255.997" r="12.882"/>
	<circle style="fill:#B27214;" cx="400.182" cy="255.997" r="12.882"/>
	<circle style="fill:#B27214;" cx="448.243" cy="255.997" r="12.882"/>
	<circle style="fill:#B27214;" cx="63.751" cy="304.059" r="12.882"/>
	<circle style="fill:#B27214;" cx="111.813" cy="304.059" r="12.882"/>
	<circle style="fill:#B27214;" cx="159.874" cy="304.059" r="12.882"/>
	<circle style="fill:#B27214;" cx="207.936" cy="304.059" r="12.882"/>
	<circle style="fill:#B27214;" cx="255.997" cy="304.059" r="12.882"/>
	<circle style="fill:#B27214;" cx="304.059" cy="304.059" r="12.882"/>
	<circle style="fill:#B27214;" cx="352.12" cy="304.059" r="12.882"/>
	<circle style="fill:#B27214;" cx="400.182" cy="304.059" r="12.882"/>
	<circle style="fill:#B27214;" cx="448.243" cy="304.059" r="12.882"/>
	<circle style="fill:#B27214;" cx="63.751" cy="352.12" r="12.882"/>
	<circle style="fill:#B27214;" cx="111.813" cy="352.12" r="12.882"/>
	<circle style="fill:#B27214;" cx="159.874" cy="352.12" r="12.882"/>
	<circle style="fill:#B27214;" cx="207.936" cy="352.12" r="12.882"/>
	<circle style="fill:#B27214;" cx="255.997" cy="352.12" r="12.882"/>
	<circle style="fill:#B27214;" cx="304.059" cy="352.12" r="12.882"/>
	<circle style="fill:#B27214;" cx="352.12" cy="352.12" r="12.882"/>
	<circle style="fill:#B27214;" cx="400.182" cy="352.12" r="12.882"/>
	<circle style="fill:#B27214;" cx="448.243" cy="352.12" r="12.882"/>
	<circle style="fill:#B27214;" cx="63.751" cy="400.182" r="12.882"/>
	<circle style="fill:#B27214;" cx="111.813" cy="400.182" r="12.882"/>
	<circle style="fill:#B27214;" cx="159.874" cy="400.182" r="12.882"/>
	<circle style="fill:#B27214;" cx="207.936" cy="400.182" r="12.882"/>
	<circle style="fill:#B27214;" cx="255.997" cy="400.182" r="12.882"/>
	<circle style="fill:#B27214;" cx="304.059" cy="400.182" r="12.882"/>
	<circle style="fill:#B27214;" cx="352.12" cy="400.182" r="12.882"/>
	<circle style="fill:#B27214;" cx="400.182" cy="400.182" r="12.882"/>
	<circle style="fill:#B27214;" cx="448.243" cy="400.182" r="12.882"/>
	<circle style="fill:#B27214;" cx="63.751" cy="448.243" r="12.882"/>
	<circle style="fill:#B27214;" cx="111.813" cy="448.243" r="12.882"/>
	<circle style="fill:#B27214;" cx="159.874" cy="448.243" r="12.882"/>
	<circle style="fill:#B27214;" cx="207.936" cy="448.243" r="12.882"/>
	<circle style="fill:#B27214;" cx="255.997" cy="448.243" r="12.882"/>
	<circle style="fill:#B27214;" cx="304.059" cy="448.243" r="12.882"/>
	<circle style="fill:#B27214;" cx="352.12" cy="448.243" r="12.882"/>
	<circle style="fill:#B27214;" cx="400.182" cy="448.243" r="12.882"/>
	<circle style="fill:#B27214;" cx="448.243" cy="448.243" r="12.882"/>
</g>
<g>
</g>
<g>
</g>
<g>
</g>
<g>
</g>
<g>
</g>
<g>
</g>
<g>
</g>
<g>
</g>
<g>
</g>
<g>
</g>
<g>
</g>
<g>
</g>
<g>
</g>
<g>
</g>
<g>
</g>
</svg>
